<?xml version="1.0" standalone="no"?>
<!DOCTYPE svg PUBLIC "-//W3C//DTD SVG 20010904//EN"
 "http://www.w3.org/TR/2001/REC-SVG-20010904/DTD/svg10.dtd">
<svg version="1.0" xmlns="http://www.w3.org/2000/svg"
 width="200.000000pt" height="200.000000pt" viewBox="0 0 200.000000 200.000000"
 preserveAspectRatio="xMidYMid meet">

<g transform="translate(0.000000,200.000000) scale(0.100000,-0.100000)"
fill="#000000" stroke="none">
<path d="M1049 1974 c-24 -8 -65 -14 -91 -14 -41 0 -46 -2 -41 -20 6 -21 -11
-28 -82 -32 -30 -2 -39 -7 -36 -18 3 -8 4 -34 4 -57 0 -26 4 -40 10 -36 7 4 8
-11 4 -42 -4 -26 -7 -55 -7 -63 0 -13 -3 -12 -15 4 -14 18 -14 18 -16 -6 -1
-17 -3 -19 -6 -8 -3 12 -12 16 -26 14 -26 -4 -26 -2 -8 -86 15 -70 16 -70 26
3 5 41 9 46 21 36 11 -9 21 -9 39 -1 17 8 32 8 53 0 29 -11 29 -12 13 -40 -9
-17 -27 -31 -43 -35 -27 -5 -37 -26 -19 -37 5 -4 12 -25 16 -47 11 -63 33 -79
110 -79 35 0 76 5 90 12 21 10 28 9 35 -2 9 -15 17 7 22 65 4 41 28 38 53 -7
27 -51 61 -68 137 -68 75 0 91 12 106 75 5 22 13 48 17 57 8 21 -45 38 -125
38 -44 1 -51 3 -36 11 10 6 33 9 52 6 40 -7 44 6 8 29 -24 16 -29 16 -77 1
-39 -12 -57 -25 -69 -47 -15 -26 -23 -31 -50 -28 -23 2 -36 11 -48 33 -13 23
-30 35 -81 51 l-64 21 31 16 c17 9 37 23 44 32 19 23 100 63 150 74 30 7 60 5
113 -8 64 -15 72 -19 75 -41 4 -32 33 -100 43 -100 22 0 21 121 -1 135 -5 3
-7 18 -4 33 11 55 -8 77 -113 128 -118 57 -155 65 -214 48z m-119 -93 c-5 -11
-15 -23 -21 -27 -6 -3 -3 5 6 20 20 30 30 35 15 7z m60 6 c0 -2 -15 -16 -32
-33 l-33 -29 29 33 c28 30 36 37 36 29z m-120 -136 c0 -5 -7 -14 -15 -21 -16
-14 -18 -10 -9 14 6 17 24 22 24 7z m6 -213 c-1 -17 6 -23 31 -28 23 -5 30 -4
26 5 -2 7 0 16 5 19 5 3 12 -4 15 -15 5 -17 12 -20 39 -17 32 3 33 2 33 -32
l0 -35 -70 -3 c-57 -2 -72 0 -82 14 -18 25 -17 114 2 114 1 0 1 -10 1 -22z
m502 -36 c2 -31 -2 -60 -9 -68 -12 -15 -94 -19 -137 -8 -27 8 -52 52 -51 91 0
25 1 26 9 8 6 -14 9 -15 10 -5 0 12 3 11 11 -2 14 -26 54 -23 67 5 l11 22 7
-23 c4 -14 13 -22 23 -20 18 4 22 39 6 51 -5 4 4 6 20 5 29 -3 30 -5 33 -56z"/>
<path d="M743 1453 c-7 -3 -13 -13 -13 -23 0 -13 5 -17 20 -13 11 3 20 8 20
12 -1 14 -16 28 -27 24z"/>
<path d="M1057 1371 l-28 -18 30 -13 c19 -8 47 -10 76 -6 56 9 69 26 19 26
-21 0 -45 7 -54 15 -14 12 -19 12 -43 -4z"/>
<path d="M1035 1303 c-27 -9 -44 -18 -37 -20 18 -7 112 17 112 28 0 12 -16 10
-75 -8z"/>
<path d="M1140 1311 c0 -5 14 -11 31 -15 49 -10 57 -6 19 9 -43 17 -50 17 -50
6z"/>
<path d="M768 1303 c7 -3 16 -2 19 1 4 3 -2 6 -13 5 -11 0 -14 -3 -6 -6z"/>
<path d="M1035 1274 c-47 -12 -48 -14 -20 -35 22 -18 30 -20 51 -10 14 6 51
11 82 11 62 0 100 14 66 23 -29 9 -157 16 -179 11z"/>
<path d="M913 1193 c-19 -7 -15 -65 8 -117 24 -56 22 -91 -6 -91 -14 0 -24 12
-35 43 -18 48 -30 46 -30 -4 0 -25 9 -43 34 -69 19 -19 30 -35 25 -35 -4 0 -6
-7 -2 -16 5 -14 1 -15 -24 -10 -28 6 -32 4 -42 -25 -16 -45 -14 -122 4 -145
18 -24 18 -29 -1 -48 -19 -19 -29 -14 -55 28 l-19 31 0 -29 c0 -23 -12 -41
-52 -79 -75 -70 -104 -80 -200 -72 -68 6 -82 5 -99 -11 -13 -11 -33 -17 -54
-16 -23 2 -37 -3 -43 -15 -9 -16 -12 -16 -38 2 l-29 18 20 -23 20 -23 -20 11
c-11 5 -40 12 -65 14 l-45 3 0 -85 c-1 -47 -6 -114 -12 -150 -7 -36 -17 -108
-24 -160 -6 -52 -14 -100 -16 -107 -4 -11 172 -13 902 -13 849 0 907 1 901 17
-19 49 -46 261 -46 361 0 79 -4 121 -14 141 -17 33 -82 87 -151 126 -95 54
-285 187 -285 199 0 6 -15 36 -34 65 -19 29 -37 65 -41 79 -3 15 -26 45 -49
67 -43 40 -44 41 -66 23 -27 -22 -102 -24 -174 -5 -43 11 -52 18 -74 60 -25
49 -47 68 -69 60z m347 -162 c0 -39 -6 -56 -26 -80 -14 -17 -32 -31 -39 -31
-7 0 -28 -16 -46 -35 -19 -19 -39 -35 -45 -35 -7 0 -14 28 -18 67 -6 62 -5 69
15 85 11 10 32 18 45 18 26 0 94 37 94 51 0 5 5 9 10 9 6 0 10 -22 10 -49z"/>
</g>
</svg>
